<svg width="32" height="32" viewBox="0 0 32 32" fill="none" xmlns="http://www.w3.org/2000/svg">
<path d="M6.66602 14C6.66602 8 10.666 4 16.666 4C22.666 4 26.666 9 26.666 14C26.666 17.1101 23.7642 21.3809 17.9607 26.8124C17.2199 27.5057 16.0774 27.5344 15.3026 26.8793C9.54488 22.0104 6.66602 17.7173 6.66602 14ZM16.666 16C18.507 16 19.9993 14.5076 19.9993 12.6667C19.9993 10.8257 18.507 9.33333 16.666 9.33333C14.8251 9.33333 13.3327 10.8257 13.3327 12.6667C13.3327 14.5076 14.8251 16 16.666 16Z" fill="#D9D9E2"/>
</svg>
