<svg width="32" height="32" viewBox="0 0 32 32" fill="none" xmlns="http://www.w3.org/2000/svg">
<path d="M25.3333 21.3333V16C25.3333 10.8453 21.1547 6.66667 16 6.66667C10.8453 6.66667 6.66667 10.8453 6.66667 16V21.3333H25.3333ZM28 21.3333H4V16C4 9.37258 9.37258 4 16 4C22.6274 4 28 9.37258 28 16V21.3333Z" fill="#D9D9E2"/>
<path fill-rule="evenodd" clip-rule="evenodd" d="M6.66667 18.6667H8C9.47276 18.6667 10.6667 19.8606 10.6667 21.3334V25.3334C10.6667 26.8061 9.47276 28 8 28H6.66667C5.19391 28 4 26.8061 4 25.3334V21.3334C4 19.8606 5.19391 18.6667 6.66667 18.6667ZM24 18.6667H25.3333C26.8061 18.6667 28 19.8606 28 21.3334V25.3334C28 26.8061 26.8061 28 25.3333 28H24C22.5272 28 21.3333 26.8061 21.3333 25.3334V21.3334C21.3333 19.8606 22.5272 18.6667 24 18.6667Z" fill="#D9D9E2"/>
</svg>
