<svg width="32" height="32" viewBox="0 0 32 32" fill="none" xmlns="http://www.w3.org/2000/svg">
<path fill-rule="evenodd" clip-rule="evenodd" d="M6.66667 8H25.3333C26.8061 8 28 9.19391 28 10.6667V22.6667C28 24.1394 26.8061 25.3333 25.3333 25.3333H6.66667C5.19391 25.3333 4 24.1394 4 22.6667V10.6667C4 9.19391 5.19391 8 6.66667 8ZM24.1926 10.4529L16 14.8642L7.80743 10.4529C7.32116 10.191 6.7147 10.373 6.45286 10.8592C6.19102 11.3455 6.37296 11.952 6.85923 12.2138L15.5259 16.8805C15.8219 17.0398 16.1781 17.0398 16.4741 16.8805L25.1408 12.2138C25.627 11.952 25.809 11.3455 25.5471 10.8592C25.2853 10.373 24.6788 10.191 24.1926 10.4529Z" fill="#58CFFF"/>
</svg>
