<svg width="20" height="20" viewBox="0 0 20 20" fill="none" xmlns="http://www.w3.org/2000/svg">
<path d="M9.99935 1.6666C12.2635 1.6666 12.546 1.67493 13.4343 1.7166C14.3218 1.75826 14.926 1.89743 15.4577 2.1041C16.0077 2.31576 16.471 2.60243 16.9343 3.06493C17.3581 3.48151 17.686 3.98542 17.8952 4.5416C18.101 5.07243 18.241 5.67743 18.2827 6.56493C18.3218 7.45326 18.3327 7.73576 18.3327 9.99993C18.3327 12.2641 18.3243 12.5466 18.2827 13.4349C18.241 14.3224 18.101 14.9266 17.8952 15.4583C17.6866 16.0147 17.3586 16.5188 16.9343 16.9349C16.5177 17.3585 16.0138 17.6864 15.4577 17.8958C14.9268 18.1016 14.3218 18.2416 13.4343 18.2833C12.546 18.3224 12.2635 18.3333 9.99935 18.3333C7.73518 18.3333 7.45268 18.3249 6.56435 18.2833C5.67685 18.2416 5.07268 18.1016 4.54102 17.8958C3.98462 17.687 3.48062 17.359 3.06435 16.9349C2.64052 16.5184 2.31263 16.0145 2.10352 15.4583C1.89685 14.9274 1.75768 14.3224 1.71602 13.4349C1.67685 12.5466 1.66602 12.2641 1.66602 9.99993C1.66602 7.73576 1.67435 7.45326 1.71602 6.56493C1.75768 5.6766 1.89685 5.07326 2.10352 4.5416C2.31205 3.98508 2.64002 3.48103 3.06435 3.06493C3.48074 2.64095 3.98471 2.31304 4.54102 2.1041C5.07268 1.89743 5.67602 1.75826 6.56435 1.7166C7.45268 1.67743 7.73518 1.6666 9.99935 1.6666ZM9.99935 5.83326C8.89428 5.83326 7.83447 6.27225 7.05307 7.05365C6.27167 7.83505 5.83268 8.89486 5.83268 9.99993C5.83268 11.105 6.27167 12.1648 7.05307 12.9462C7.83447 13.7276 8.89428 14.1666 9.99935 14.1666C11.1044 14.1666 12.1642 13.7276 12.9456 12.9462C13.727 12.1648 14.166 11.105 14.166 9.99993C14.166 8.89486 13.727 7.83505 12.9456 7.05365C12.1642 6.27225 11.1044 5.83326 9.99935 5.83326ZM15.416 5.62493C15.416 5.34866 15.3063 5.08371 15.1109 4.88836C14.9156 4.69301 14.6506 4.58326 14.3743 4.58326C14.0981 4.58326 13.8331 4.69301 13.6378 4.88836C13.4424 5.08371 13.3327 5.34866 13.3327 5.62493C13.3327 5.9012 13.4424 6.16615 13.6378 6.3615C13.8331 6.55685 14.0981 6.6666 14.3743 6.6666C14.6506 6.6666 14.9156 6.55685 15.1109 6.3615C15.3063 6.16615 15.416 5.9012 15.416 5.62493ZM9.99935 7.49993C10.6624 7.49993 11.2983 7.76332 11.7671 8.23216C12.236 8.701 12.4993 9.33689 12.4993 9.99993C12.4993 10.663 12.236 11.2989 11.7671 11.7677C11.2983 12.2365 10.6624 12.4999 9.99935 12.4999C9.33631 12.4999 8.70042 12.2365 8.23158 11.7677C7.76274 11.2989 7.49935 10.663 7.49935 9.99993C7.49935 9.33689 7.76274 8.701 8.23158 8.23216C8.70042 7.76332 9.33631 7.49993 9.99935 7.49993Z" fill="white"/>
</svg>
