<svg width="20" height="20" viewBox="0 0 20 20" fill="none" xmlns="http://www.w3.org/2000/svg">
<path d="M3.33333 2.5H16.6667C16.8877 2.5 17.0996 2.5878 17.2559 2.74408C17.4122 2.90036 17.5 3.11232 17.5 3.33333V16.6667C17.5 16.8877 17.4122 17.0996 17.2559 17.2559C17.0996 17.4122 16.8877 17.5 16.6667 17.5H3.33333C3.11232 17.5 2.90036 17.4122 2.74408 17.2559C2.5878 17.0996 2.5 16.8877 2.5 16.6667V3.33333C2.5 3.11232 2.5878 2.90036 2.74408 2.74408C2.90036 2.5878 3.11232 2.5 3.33333 2.5ZM14.4167 13.2833C14.3333 13.2417 14.2917 13.1167 14.2917 13.0325V6.67167C14.2917 6.58833 14.3333 6.46333 14.4167 6.37917L15.2125 5.45833V5.41667H12.3667L10.2333 10.815L7.805 5.41667H4.87667V5.45833L5.62917 6.505C5.79667 6.67167 5.83833 6.92333 5.83833 7.1325V11.735C5.88 11.9867 5.83833 12.2792 5.71333 12.53L4.58333 14.0783V14.12H7.59667V14.0783L6.46667 12.5725C6.34167 12.3208 6.29917 12.07 6.34167 11.7775V7.59167C6.38333 7.675 6.425 7.675 6.46667 7.8425L9.31167 14.2033H9.35333L12.1167 7.3C12.075 7.55 12.075 7.84333 12.075 8.05333V12.9908C12.075 13.1158 12.0333 13.1992 11.95 13.2833L11.1125 14.0783V14.12H15.2133V14.0783L14.4183 13.2833H14.4167Z" fill="white"/>
</svg>
