<svg xmlns="http://www.w3.org/2000/svg" width="30.453" height="17.942" viewBox="0 0 30.453 17.942">
  <g id="Send_Icon" data-name="Send Icon" transform="translate(0 -7.029)">
    <path id="Path_1" data-name="Path 1" d="M10.666,17.556,27.262,16l-16.6-1.556V7.7a.667.667,0,0,1,.94-.608l18.454,8.3a.667.667,0,0,1,0,1.216l-18.454,8.3a.667.667,0,0,1-.94-.608Z" fill="#58cfff" fill-rule="evenodd"/>
    <path id="Path_2" data-name="Path 2" d="M5.333,21.333H6.667a1.333,1.333,0,0,1,0,2.667H5.333a1.333,1.333,0,0,1,0-2.667Zm-4-6.667H6.667a1.333,1.333,0,1,1,0,2.667H1.333a1.333,1.333,0,1,1,0-2.667ZM5.333,8H6.667a1.333,1.333,0,0,1,0,2.667H5.333A1.333,1.333,0,0,1,5.333,8Z" fill="#58cfff" fill-rule="evenodd" opacity="0.3"/>
  </g>
</svg>
