<svg width="32" height="32" viewBox="0 0 32 32" fill="none" xmlns="http://www.w3.org/2000/svg">
<path fill-rule="evenodd" clip-rule="evenodd" d="M10.666 17.5559L27.2621 16L10.666 14.4441V7.69576C10.666 7.60144 10.686 7.5082 10.7247 7.42219C10.8758 7.08643 11.2705 6.93672 11.6063 7.08781L30.0601 15.392C30.2087 15.4589 30.3276 15.5778 30.3945 15.7264C30.5455 16.0622 30.3958 16.4568 30.0601 16.6079L11.6063 24.9122C11.5202 24.9509 11.427 24.9709 11.3327 24.9709C10.9645 24.9709 10.666 24.6724 10.666 24.3042V17.5559Z" fill="#F8979B"/>
<path opacity="0.3" fill-rule="evenodd" clip-rule="evenodd" d="M5.33333 21.3333H6.66667C7.40305 21.3333 8 21.9303 8 22.6667C8 23.403 7.40305 24 6.66667 24H5.33333C4.59695 24 4 23.403 4 22.6667C4 21.9303 4.59695 21.3333 5.33333 21.3333ZM1.33333 14.6667H6.66667C7.40305 14.6667 8 15.2636 8 16C8 16.7364 7.40305 17.3333 6.66667 17.3333H1.33333C0.596954 17.3333 0 16.7364 0 16C0 15.2636 0.596954 14.6667 1.33333 14.6667ZM5.33333 8H6.66667C7.40305 8 8 8.59695 8 9.33333C8 10.0697 7.40305 10.6667 6.66667 10.6667H5.33333C4.59695 10.6667 4 10.0697 4 9.33333C4 8.59695 4.59695 8 5.33333 8Z" fill="#F8979B"/>
</svg>
