<svg width="20" height="20" viewBox="0 0 20 20" fill="none" xmlns="http://www.w3.org/2000/svg">
<path d="M18.4683 4.71336C17.8321 4.99478 17.1574 5.17959 16.4666 5.2617C17.1947 4.82622 17.7397 4.14088 17.9999 3.33336C17.3166 3.74003 16.5674 4.02503 15.7866 4.1792C15.2621 3.61801 14.5669 3.24583 13.8091 3.12052C13.0512 2.9952 12.2732 3.12377 11.596 3.48624C10.9187 3.84871 10.3802 4.42477 10.0642 5.12486C9.74812 5.82495 9.67221 6.60985 9.84826 7.35753C8.46251 7.28808 7.10687 6.92797 5.86933 6.30058C4.63179 5.6732 3.54003 4.79257 2.66492 3.71586C2.35516 4.24791 2.19238 4.85272 2.19326 5.46836C2.19326 6.6767 2.80826 7.7442 3.74326 8.3692C3.18993 8.35178 2.64878 8.20235 2.16492 7.93336V7.9767C2.16509 8.78145 2.44356 9.56138 2.95313 10.1842C3.46269 10.8071 4.17199 11.2346 4.96076 11.3942C4.4471 11.5334 3.90851 11.5539 3.38576 11.4542C3.60814 12.1469 4.04159 12.7527 4.62542 13.1868C5.20924 13.6209 5.9142 13.8615 6.64159 13.875C5.91866 14.4428 5.0909 14.8625 4.20566 15.1102C3.32041 15.3578 2.39503 15.4286 1.48242 15.3184C3.0755 16.3429 4.93 16.8868 6.82409 16.885C13.2349 16.885 16.7408 11.5742 16.7408 6.96836C16.7408 6.81836 16.7366 6.6667 16.7299 6.51836C17.4123 6.02517 18.0013 5.41421 18.4691 4.7142L18.4683 4.71336Z" fill="white"/>
</svg>
